<svg xmlns="http://www.w3.org/2000/svg" xmlns:xlink="http://www.w3.org/1999/xlink" width="1080" zoomAndPan="magnify" viewBox="0 0 810 809.999993" height="1080" preserveAspectRatio="xMidYMid meet" version="1.0"><defs><clipPath id="8a403ae90d"><path d="M 409.746094 0 L 810 0 L 810 400.253906 L 409.746094 400.253906 Z M 409.746094 0 " clip-rule="nonzero"/></clipPath><clipPath id="7a788ff413"><path d="M 0 0 L 400.253906 0 L 400.253906 400.253906 L 0 400.253906 Z M 0 0 " clip-rule="nonzero"/></clipPath><clipPath id="03f3eef0fe"><path d="M 0 409.746094 L 400.253906 409.746094 L 400.253906 810 L 0 810 Z M 0 409.746094 " clip-rule="nonzero"/></clipPath><clipPath id="0a50956b11"><path d="M 409.746094 409.746094 L 810 409.746094 L 810 810 L 409.746094 810 Z M 409.746094 409.746094 " clip-rule="nonzero"/></clipPath></defs><g clip-path="url(#8a403ae90d)"><path fill="#9f53ff" d="M 810 200.125 C 810 89.597656 720.402344 0.00390625 609.875 0.00390625 C 499.351562 0.00390625 409.746094 89.597656 409.746094 200.125 L 409.746094 400.25 L 609.875 400.25 C 720.402344 400.25 810 310.640625 810 200.125 Z M 810 200.125 " fill-opacity="1" fill-rule="nonzero"/></g><g clip-path="url(#7a788ff413)"><path fill="#15faa7" d="M 200.125 0 C 89.597656 0 0.00390625 89.597656 0.00390625 200.125 C 0.00390625 310.648438 89.597656 400.253906 200.125 400.253906 L 400.25 400.253906 L 400.25 200.125 C 400.25 89.597656 310.640625 0 200.125 0 Z M 200.125 0 " fill-opacity="1" fill-rule="nonzero"/></g><g clip-path="url(#03f3eef0fe)"><path fill="#9f53ff" d="M 0 609.875 C 0 720.402344 89.597656 809.996094 200.125 809.996094 C 310.648438 809.996094 400.253906 720.402344 400.253906 609.875 L 400.253906 409.75 L 200.125 409.75 C 89.597656 409.75 0 499.359375 0 609.875 Z M 0 609.875 " fill-opacity="1" fill-rule="nonzero"/></g><g clip-path="url(#0a50956b11)"><path fill="#15faa7" d="M 609.875 810 C 720.402344 810 809.996094 720.402344 809.996094 609.875 C 809.996094 499.351562 720.402344 409.746094 609.875 409.746094 L 409.75 409.746094 L 409.75 609.875 C 409.75 720.402344 499.359375 810 609.875 810 Z M 609.875 810 " fill-opacity="1" fill-rule="nonzero"/></g></svg>