<svg xmlns="http://www.w3.org/2000/svg" xmlns:xlink="http://www.w3.org/1999/xlink" width="500" zoomAndPan="magnify" viewBox="0 0 375 374.999991" height="500" preserveAspectRatio="xMidYMid meet" version="1.0"><defs><clipPath id="7b694be465"><path d="M 40.3125 0 L 335 0 L 335 299 L 40.3125 299 Z M 40.3125 0 " clip-rule="nonzero"/></clipPath><clipPath id="df450c6f1b"><path d="M 40.3125 174 L 335 174 L 335 375 L 40.3125 375 Z M 40.3125 174 " clip-rule="nonzero"/></clipPath></defs><g clip-path="url(#7b694be465)"><path fill="#43c3c3" d="M 273.011719 97.285156 L 195.359375 197.671875 L 117.699219 97.285156 L 195.359375 0.160156 Z M 278.710938 296.835938 L 334.664062 215.425781 L 259.71875 189.582031 L 220.625 204.644531 Z M 169.753906 204.683594 L 130.351562 190.429688 L 40.3125 220.550781 L 113.539062 298.058594 Z M 169.753906 204.683594 " fill-opacity="1" fill-rule="nonzero"/></g><path fill="#ffffff" d="M 220.941406 213.179688 C 220.339844 219.222656 213.984375 213.691406 194.902344 213.78125 C 176.507812 213.863281 170.496094 219.042969 169.867188 213.179688 C 168.972656 204.1875 181.398438 174.75 195.410156 174.742188 C 209.417969 174.734375 221.804688 204.148438 220.941406 213.179688 Z M 220.941406 213.179688 " fill-opacity="1" fill-rule="nonzero"/><path fill="#1eefab" d="M 220.625 109.074219 L 265.863281 58.742188 L 284.828125 119.300781 L 220.625 204.734375 Z M 169.753906 110.425781 L 124.515625 60.082031 L 105.542969 120.644531 L 169.753906 206.074219 Z M 169.753906 110.425781 " fill-opacity="1" fill-rule="nonzero"/><g clip-path="url(#df450c6f1b)"><path fill="#718ae1" d="M 220.625 204.683594 L 269.140625 308.015625 L 195.097656 374.882812 L 125.296875 308.015625 L 169.769531 204.683594 Z M 259.71875 189.582031 L 334.664062 215.425781 L 266.992188 174.578125 L 220.613281 204.644531 Z M 169.753906 204.683594 L 133.546875 175.570312 L 40.3125 220.550781 L 130.351562 190.445312 Z M 169.753906 204.683594 " fill-opacity="1" fill-rule="nonzero"/></g></svg>